<svg xmlns="http://www.w3.org/2000/svg" viewBox="0 0 210.9 216.9" xmlns:v="https://vecta.io/nano"><style><![CDATA[.B{fill-rule:evenodd}.C{stroke-width:1.5}.D{stroke-linejoin:round}.E{stroke-miterlimit:79.8403}.F{fill:#a1aaba}.G{stroke:#5d677a}.H{fill:#d0d3da}.I{stroke-linecap:round}]]></style><g class="B"><path fill-opacity=".2" d="M105.3 193c56.9 0 103 4.8 103 10.8s-46.2 10.8-103 10.8-103-4.8-103-10.8 46.1-10.8 103-10.8z"/><path d="M68.1 173.2c-3.9-2-7.1-5.7-7.6-10.8-.3-2.8 1.8-5.3 4.6-5.5 2.8-.3 5.3 1.8 5.5 4.6.1 1.1.7 2.1 2.1 2.8s3.5 1 5.7.4c1.7-.5 2.5-1.4 3-2.4.7-1.4 1-3.1 1.4-5.6 1-5.8-.3-14 5.1-19.1 6.7-6.5 15.1-5.4 20-.5 4.8 4.9 5.7 13.4-1.2 19.2-2.2 1.8-5.4 1.5-7.1-.7-1.8-2.2-1.5-5.4.7-7.1 1.9-1.6 1.5-3.2.5-4.3-1-1-3-1.9-5.7.7-.4.4-.9 1.3-1.2 3.9s-.3 6-.9 9.6c-.3 2-.8 5.3-2.3 8.3-1.6 3.4-4.5 6.3-9.3 7.7-4.7 1.2-9.4.8-13.3-1.2z" class="C D E F G"/><path d="M100 155c-1.5-1.8-1.3-4.6.6-6.1 2-1.6 1.9-3.5 1-4.8l-.3-.3 1.2-.6c.9-.5 1.7-1.1 2.1-1.6l2.3-3.1.6-.8.7.7c3.8 4.7 4.1 12.1-2 17.2-1.9 1.5-4.7 1.3-6.2-.6z" class="H"/><g class="C D E F G"><path d="M25.3 37.9C21.7 27.2 26.9 14.7 31.8 5 37-5.2 50.2 21.3 50.5 24.1c-3 3.4-22.1 14.3-25 14.5-.1-.2-.2-.5-.2-.7zm68.8 0c3.5-10.7-1.6-23.2-6.5-32.9-5.1-10.2-18.1 16.3-18.4 19.1 3 3.4 21.8 14.3 24.6 14.5.1-.2.2-.5.3-.7z"/><path d="M26 141.3s-18.5-.2-21.4-15c-2.7-14.1 21.6-42.1 23.1-42.9.4-1.1-.1-3-.2-7.5-.1-2.9-1.2-5.4-2.8-7.9-.3.1-9.1-1.7-9.8-2 .8-1.5 2.5-1.4 3.8-2-1.7-1.6-4.6-.8-6.2-1.5.9-1.6 2.8-2 4.3-2.7-1.5-.9-4-1.3-5.7-2.3.6-.5 2.7-1.1 3.4-1.6-1.6 0-4.5-1.7-6.1-2.4 1.7-1.1 5.5-2.5 5.9-4.8-1-.4-1.6-.4-2.7-.7 1-1.3 4.4-3.2 4.3-4.5-.8-.1-1.4-.2-2.1-.3 2.3-.9 5.4-2.5 6.5-4.9 6.5-12.7 22.2-21.7 40.6-21.7 17.9 0 33.2 8.5 40 20.6 1.2 1.5 3.1 3.6 5.1 4.1-.1 1-1.4 1.4-1.9 1.8 1.3 1.5 3.2 2.8 4.4 3.7-.5.2-1.1 0-1.7.1 1.1 1 2.8 1.9 3.8 3.1a18.73 18.73 0 0 1-3.2.8c.9 1.7 4.6 2.8 5.4 4-1.5.6-4.1 1.7-5.3 2.5 1.1.5 2.2 1.3 3.4 2-1.3 1.4-4 1.4-5.9 2.3.6.7 1.7.8 2.1 1.6-1.8 1.9-5.2.7-7.4 1.7-2 3.5-3.9 6.9-3.9 10.9.3 3.9.3 3.3 1 5.6 2.4 2 2.7 4.9 9.3 8.7 6.3 3.7 38.3.7 36.4 16.3-1.3 10.2-25.5-5.1-35.3 5.1-2.9 3-3 3.2-2.8 7.9.4 10.9-1.5 34.8-2.3 39.7l-4.7 30.3c-.3 2-.1 7 0 7.7.5 2.8-10.5 4-14.8 1.6-3.3-1.9-4.2-35.8-15.9-36-13.9-.2-15 30.5-16.1 36-.6 3-16.4 2.8-16.4.3-.1-4.8-2-13.6-3.9-22.2-1.6-6.5-3.8-31-4.3-35.5z"/></g><path d="M50.2 156c-9.5-8.1-13.2-22-10.6-33 2.5-10.9 10.3-29.4 25.4-30.8 8.6-.8 16.2 7.5 19.8 12.6 3.9 5.4 6.4 12.6 7.3 18.6 1.9 14.1-6.6 27.2-12.3 32.6-4.1 3.9-9.9 4.4-14 4.4-3.8.1-11.8-1.1-15.6-4.4zM17.4 65.8l-.6-.1.6-.2c.6-.2 1.3-.3 2.1-.7.5-.2.6-.9.2-1.2-1.4-1.4-3.6-1.3-5.1-1.4h-.2l.9-.6 2.3-1c.6-.2.6-1 .1-1.3-1.2-.7-2.9-1.1-4.4-1.7l.3-.1c.7-.2 1.4-.5 1.8-.8.6-.4.3-1.4-.4-1.4-1.1 0-2.9-.9-4.4-1.7h0l.5-.3c1.9-1 4.2-2.3 4.6-4.3.1-.4-.1-.7-.5-.8-.3-.1-.5-.2-.8-.2l-.7-.2h.1c.4-.4.9-.8 1.4-1.2.7-.6 2.1-1.8 2-2.9h0c0-.2-.1-.4-.2-.5l-.2-.2.6-.3c1.7-.9 3.3-2.2 4.1-3.9l.8-1.4-.8 2.5c-.7 1.9-1.6 3.6-2.8 4.6.7.4 2 0 2.8-.1l-2.6 4.1c.7.1 1.5 0 2.3.1-.1.5-2.8 3.8-3.4 4.4.5.6 3 .8 4.1.8-.7 1-2.7 2.8-3.7 3.9a68.24 68.24 0 0 0 3.1.8c-.3.8-1.5 1.1-1.7 2 .5.2 2.7.9 3.4 1-1.1 1.1-1.7 1.6-2.5 2.9l4.4.9-1 1.7h-.2l-6.3-1.2zm82.6-2.3c.2-.8 2.4-2.6 3.2-3-.6-.9-1.7-.6-2.5-1.2 1.1-.7 1.9-1.9 3.3-2.5-1-.6-2-.8-2.8-1.3 1-.5 2.4-2.3 3.2-3.1-.8-1-2.6-1.2-3.5-2.2.4-.7 1.9-1 2.7-1.4-1.3-.4-3-1.4-4.3-2 .7-.8 2-1.2 3.1-1.2-1.5-1-3.9-3-5-4.6 1.5-.2 2.3 0 3.7.2-1.8-2.3-2.1-5.1-3.1-7.6v-.1h0c1.1 1.4 2 2.8 2.9 4.3 0 0 0 .1.1.1.9 1.1 2.3 2.7 3.9 3.7l.7.4-.2.2-1 .6c-.4.3-.4.8-.1 1.1.7.8 1.5 1.5 2.3 2.1l.7.5-.3.1c-.3.3-.4.8 0 1.1.6.5 1.3 1 2 1.5l.9.7-.4.1c-.6.1-1.1.3-1.5.3-.5 0-.9.6-.6 1.1.8 1.4 3.1 2.5 4.5 3.3l.1.1h-.1c-1.4.6-3.2 1.4-4.2 2.1-.5.3-.4 1 .1 1.3l1.6.9.8.5-.2.1c-1.2.5-3 .7-4.6 1.4-.5.2-.6.8-.3 1.2.4.4.8.7 1.2.9l.4.2-.1.1c-1.4.8-3.7.3-5.7.8h0l-.9-.8z" class="H"/><g class="F"><path d="M32.4 20.7c5.2-3.9 11.3-4.5 13.7-1.3s.1 8.9-5.1 12.8-11.3 4.5-13.7 1.3-.1-8.9 5.1-12.8zm55.3 2.7c-4.6-3.4-9.9-3.9-12-1.2-2.1 2.8-.1 7.8 4.5 11.2s9.9 3.9 12 1.2 0-7.7-4.5-11.2z"/><path d="M88 20.3c-5.5-4.2-12.1-4.8-14.6-1.4s-.1 9.5 5.5 13.6c5.5 4.2 12.1 4.8 14.6 1.4 2.5-3.3 0-9.4-5.5-13.6z"/></g></g><path fill="#5a2701" stroke="#3a1903" stroke-width="2" stroke-miterlimit="10" d="M113.6 203.1h71.6c5.9 0 10.7-4.8 10.7-10.7v-71.6c0-5.9-4.8-10.7-10.7-10.7h-71.6c-5.9 0-10.7 4.8-10.7 10.7v71.6c0 5.9 4.8 10.7 10.7 10.7z"/><path fill="#3a1903" d="M184.9 202.3H114c-6.1 0-11.1-5-11.1-11.1v-14.5h93v14.5c0 6.2-4.9 11.1-11 11.1z"/><path fill-opacity=".91" d="M160.808 195.644l1.567-3.134h3.917l-1.567-5.484 2.35-6.268 7.051 18.02h-4.701l-.783-3.134h-7.835zm-3.917 2.35l7.051-18.02h-4.701l-4.701 11.752-3.917-11.752h-3.917l-3.917 11.752-2.35-5.484-2.35 7.835 2.35 3.917h4.701l3.134-10.185 3.134 10.185h5.484zm-26.638-6.267h3.134 2.35l.783-2.35 2.35-6.268s0-.783-.783-.783c-.783-1.567-2.35-1.567-4.701-1.567h-7.835v18.02h4.701v-7.051zm3.917-7.835v2.35c0 .783 0 1.567-.783 1.567-.783.783-1.567.783-2.35.783h-1.567v-4.701h1.567 3.134z" fill="#f9f5eb"/><path fill="#c69e6c" d="M171.4 119.8s-.7.1-1.6.1c-1.7.1-2.1.1-2.8.3a5.07 5.07 0 0 1-1.3.2c-.4 0-.9.2-1.1.2s-.5.1-.7.2c-2.4.6-7.4 2.3-8.7 3.1-.2.1-.4.2-.5.2l-1.5.8c-6 3.3-11.1 7.8-15.1 13.4-.8 1.2-.8 1.2-1 2.5-.1.7-.2 1.4-.2 1.6l-.1.3-.2-.3c-.1-.2-.3-.4-.3-.6-.2-.4-.4-.4-1.1.4-1.1 1.3-1.6 2.3-2.4 4.9-.6 2.2-.5 2-.9 1.7-.2-.2-.4-.2-.4-.2 0 .1-.1.6-.1 1.2 0 1.1 0 1.1-.4 1.2-.3.1-.4.2-.4.5s-.1.6-.1.9c-.2 1.2-.3 4.6-.2 4.4 0-.1.4-.8.9-1.6.7-1.4 2.6-4.6 3.1-5.4.1-.2.3-.5.4-.6.6-1 3.5-5.2 4.1-5.9.1-.1.4-.5.7-.9 1.5-2 4.1-5.1 6.3-7.2 2.9-3 6.8-6.1 10.1-8.2 1.6-1 3.5-2.1 3.5-2 0 0-.5.5-1.3 1-2.4 1.6-6.6 4.9-8.1 6.3-.9.9-3.6 3.4-4.1 4-.9.9-4.1 4.7-4.8 5.5-.7.9-3.1 4.1-3.4 4.6-7 10.5-9.2 15-11.4 22.9-.1.3-.1.6 0 .5.2-.1 1.6-2.2 1.6-2.3s.3-.8 1.8-4.6l.5-1.4 2.5-1.1 2.7-1.2c.1-.1.8-.4 1.6-.7l1.4-.6-.6-.2c-.3-.1-.7-.2-.8-.3s-.3-.1-.3-.1c-.1 0-.2-.1-.2-.1s1.4-.7 3.3-1.4c1.8-.7 3.3-1.4 3.3-1.4s-1.3-.3-2.1-.4c-.3 0-.6-.1-.6-.1 0-.1 3.7-1.2 3.8-1.1.1 0 .9-1 2.8-3.3.2-.2 1-1.2 1.7-2.1s1.4-1.8 1.6-1.9c.1-.2.8-1 1.5-1.9s1.4-1.7 1.5-1.8c.2-.2 2.3-2.8 3.2-4 .2-.3.4-.5.4-.6s-1.3-.4-2.8-.7c-2.6-.6-3.7-.9-3-.8.3 0 2.6-.2 3.4-.2.3 0 1-.1 1.6-.1s1.4-.1 1.7-.2c.7-.1.7-.1 2-1.8.3-.5.8-1 1-1.3.4-.6.4-.6 0-.7-.2 0-.6-.2-.8-.2l-.5-.2 1.6-.6c2-.8 2.5-1.1 3.3-1.9l2-2c.9-.8 1.3-1.4 1.3-1.5s-.1-.2-.2-.2-.2-.1-.3-.2.4-.4 2.3-1.4c1.3-.7 2.7-1.3 3-1.5s1.3-.6 2.1-1.1l1.6-.8h-2.3-2.5 0z"/><g class="B"><path d="M97.6 195.7s4.9-.8 8.4 1.1c5.2 3 4.8 10-4.6 10.5-11.1.6-15.5-6.5-18.8-8.9m-48.2-3.1s-9.8 2.2-10.5 6.5c-1.1 6.2 8.1 7.2 15.6 5.5 4.5-1 6.7-3.2 11.4-8.1" class="C D E F G I"/><path fill="#7d7da9" stroke="#58597e" d="M28.6 76c19.9 11.2 44.2 8.9 67.7-1.4l1.2 5.9c-15.4 10-49.9 14.8-70.2 2l1.3-6.5z" class="C D E"/><path d="M56.3 144.4c3.8-.2 7-7.2.7-6.9 4.4-.5 5.1-1.2 5.7-4.3 1.1-5.3-7.4-2.5-8.8-2.4 1.1-.2 3.2-9.8 1.2-11.1-1.3-.9-3.6-.8-4.9-.2-2.7 1.2-.2 8.5-3.2 10.2-2.1 1.1-2.8 2.5-4.4 2.6-1.7 4.3-.4 6.9 1.8 9.1 3.4 3.3 7.5 3.2 11.9 3z" class="C D E F G"/><path d="M24.7 204.1c.2.7.7 1.1.8 1.2.7.6 1.3 1.1 4.4 1.7l4.3.9c2 .2 5.7-.2 7.9-2 1.9-1.5-.8-7.7-2.8-7.4-1 .1-4-1-6.7-1.1-2.4-.1-4.6.8-6.4 2.2-1.9 1.5-2 2.9-1.5 4.5zm66.2-4.4c-1.1 1.2-1.1 4.3.8 5 .3.1 1.9 1 3.9 1.5 1.5.3 3.6.3 4.9.4 3.5.1 4.4-.4 5.9-1.2 3.3-1.7 3.5-8.3-4.9-9-2.1-.2-7.8-.1-10.6 3.3z" class="H"/></g><g class="C D E G"><path d="M33.6 197.6c-2.5.5-7.4 2.5-7 6.9.3 3.2 2.3 3.4 6.1 3m7.7-8.5c-6.5-1.9-9.7 4.4-8.3 7 1.8 3.4 8.3 1.8 12.7-1.3m55.5-6.8c7.9 1 7.1 9.9.3 8.7m-8.2-8.2c10.3-1.6 10.2 8.6 4.9 8.8" fill="none" class="I"/><path fill="#ededed" d="M78.2 34.2c4 0 7.3 5.1 7.3 11.4S82.2 57 78.2 57s-7.3-5.1-7.3-11.4 3.3-11.4 7.3-11.4z" class="B"/></g><path fill="#5d677a" d="M61.9 54c2.9 0 5.3 1.1 5.3 2.5S64.8 59 61.9 59s-5.3-1.1-5.3-2.5c-.1-1.4 2.3-2.5 5.3-2.5z" class="B"/><path fill="#444d5d" d="M78.1 39.6c3 0 5.5 3.3 5.5 7.4s-2.5 7.5-5.5 7.5-5.5-3.3-5.5-7.4 2.5-7.5 5.5-7.5z" class="B"/><path d="M76.2 43.4c1 0 1.7 1.1 1.7 2.5s-.8 2.5-1.7 2.5c-1 0-1.7-1.1-1.7-2.5s.8-2.5 1.7-2.5z" class="B F"/><g class="C D E G"><g fill="none" class="I"><path d="M58.8 68c1.3 1.6 6 1.6 7.2 0m-3.9-8.9v4.4"/><path d="M62 63.4c3.1 3.6 9.3 2.1 12.1-1m-12 1.3c-3.1 3.6-9.3 2.1-12.1-1m23.2-1.4c1.3.4 3 .8 3.7 1.9m-29.4.7c.7-1 1.8-1.9 3.2-2.2m32.2 1.6c3.3.6 6.2 1.8 8.3 4.5m-8-7.1c3.3.3 6.2 1 9.2 2.3m-50.6.3c-3.3.6-6.2 1.8-8.3 4.5m8.1-7.1c-3.3.3-6.2 1-9.2 2.3m43.8-32.2c.1-1.3.3-2.8.9-4m2 4.6c.4-1.3.6-2.7 1.3-3.9m-35.5 3.3c-.1-1.3-.3-2.8-.9-4m-1.9 4.6c-.4-1.3-.6-2.7-1.3-3.9"/></g><path fill="#ededed" d="M46.1 33.9c4 0 7.3 5.1 7.3 11.4s-3.3 11.4-7.3 11.4-7.3-5.1-7.3-11.4 3.3-11.4 7.3-11.4z" class="B"/></g><path fill="#444d5d" d="M46 39.3c3 0 5.5 3.3 5.5 7.4S49 54.2 46 54.2s-5.5-3.3-5.5-7.4 2.5-7.5 5.5-7.5z" class="B"/><path d="M44.1 43.1c1 0 1.7 1.1 1.7 2.5s-.8 2.5-1.7 2.5c-1 0-1.7-1.1-1.7-2.5s.8-2.5 1.7-2.5z" class="B F"/><path d="M88.5 24c.4-3.7-1.3-12.6-2.4-15.4-2.5-6.5-7.8 8.9-8.2 10.6.6.7 9.4 5.2 10.3 5.5.2-.2.3-.4.3-.7zm-57 1.9c-1-3.4.9-12.1 3-14.9 4.3-5.7 7.5 8.2 7.8 9.9-.6.7-9.7 5.3-10.6 5.6 0-.1-.1-.4-.2-.6z" class="H B"/><path fill="#f5f0dc" stroke="#907a4b" d="M71.4 97.9c2 5.2-.5 11.2-5.4 13.4-5 2.2-10.6-.3-12.6-5.6-2-5.2.5-11.2 5.4-13.4 5-2.1 10.6.4 12.6 5.6z" class="B C D E"/><path fill="#be915b" d="M61.1 107.4c-1.3-1.3-1.9-2.7-2.1-4.1.3 0 .4.1.7.1-.2-.3-.8-.9-.8-1.1.1-2.1 1.1-4.3 2.3-6.1 1-1.4 2.8-2.7 3.8-3.3-.5 1.3 0 2.5-.2 4.1l-.1 2.1c-.3.1-1.6.8-1.7 1 .3 0 1.4-.2 1.6-.1-.1 1.7-.3 2.6-.6 3.8-.2.8-.3 1.7-.8 2.4.7.1.5.2.6.6-.7-.2-1.5.3-1.8.7-.2.2-.4.3-.5.4 0-.1-.2-.3-.4-.5z" class="B"/><g class="D E"><g fill="none" stroke-width="1.125" class="I"><path stroke="#be915b" d="M62.4 109.8c-.4-.9-.5-2.2-.4-3.1"/><path stroke="#dccca1" stroke-opacity=".855" d="M61.9 107.2c-.6-3.7-.7-7.1 1.6-11.1"/></g><path fill="#dccca1" stroke="#907a4b" d="M61 90.5c-1.2-2.5-2.1-7.8.1-8.4 5.9-1.5 4.2 10.7.7 9.5-.3-.2-.6-.6-.8-1.1z" class="B C"/></g><path d="M55.1 124.9s-.6.3-2.3.2-3.2-.4-3.2-.4-.6-4.1 1.3-4.6 2.8-.3 3.6 0c.9.2 1 2.4.6 4.8z" class="B H"/><g class="F B"><g class="C D E G"><path d="M128.1 110c3.5-.2 14.4-.7 14.8-3.4s-6.2-2.2-15.2-6.5c-5.7-2.7-13.4 2.2-16.2 4.6-.4.3 5.4 2.4 7.7 4.9.6.8 4.1.7 8.9.4z"/><path d="M112.9 103.6c-1.4 1-10.4 7.4-7.8 14 1 2.5 2.9 4.1 5.4 2 1.3-1.1 2.5-7.3 3.6-7.8-.9 1-2.2 6.6-.7 9.7.8 1.6 5.1 4.3 6.3.9.9-2.6.4-6 2.2-7.6-.5 1.2-.8 4.6.6 6.4 4.1 5 7.3 1.3 6.6-1.3-1.2-4.6 1.1-8.3-2-11.9-1.5-1.8-5-6.6-9.4-6.5-1.8 0-2.7.8-4.8 2.1z"/></g><path d="M124 97.1c2.3-1.5 13.4.6 16.5 3.6 1.5 1.5 2.3 3.5 1.8 5.6-.5 2-6 2.1-6.5 2.1-2 0-8.2 1.6-11.8 1.3-5.7-.4-10.7-5.3-8-7.1 2.2-1.4 5.7-2.1 5.7-2.1l2.3-3.4z"/></g><path d="M106.2 111.8s-1.4 3.3-.5 5.6c.6 1.6 1.1 2.4 2.3 2.4 1.1 0 2.3-.5 2.8-2.4.6-2.2 1.3-3.8 1.3-3.8s-.7-1.2-2.7-1.9c-1.7-.6-3.2.1-3.2.1zm7.7 2.9s-.7 3.4-.2 5.5c.7 2.9 4.1 3.5 4.6 3s1.2-1.6 1.2-3.3c.1-1.6.6-3.7.6-3.7s-1.1-1.2-2.8-1.5-3.4 0-3.4 0zm8.5 2.5s-.2 2.3.7 3.5c1 1.3 2.7 2.3 3.6 2.2s1.3-.7 1.6-1.4c.5-1-.2-4.4-.2-4.9s-2.7-.5-3.4-.3l-2.3.9z" class="H B"/><g class="F B"><path d="M23.9 141.2s11.1 2.1 24.4 1.7c3-.1.7-12-3.9-11.7-3.4.2-7.1-1-8-1.3-1.9-.7-1-.3-4.1-1.6-2.5-1-1.6 4.3-1.6 4.3l-6.8 8.6z" class="C D E G"/><path d="M19.5 139l-1.2-21.5 7.6 5.7 2.6 4 7.6 3.8-7 10.3-5.6-.8z"/><path d="M36.7 110.5c-3.9 4.7-12.2 14.6-4.4 17.8" class="C D E G I"/><path d="M52 128l.3 9.2-2.4 6.3-4.2-1.3-2-9.4 3.7-2.3s1-.5 2-2.3c.4-.9 2.6-.2 2.6-.2z"/></g></svg>